<?xml version="1.0" encoding="utf-8"?>
<svg xmlns="http://www.w3.org/2000/svg" id="Ebene_1" data-name="Ebene 1" viewBox="0 0 517.08 229.1">
  <defs>
    <style>
      .cls-1, .cls-2, .cls-3, .cls-4, .cls-5, .cls-6, .cls-7, .cls-8, .cls-9 {
        fill: none;
        stroke-linecap: round;
      }

      .cls-1, .cls-2, .cls-3, .cls-4, .cls-5, .cls-6, .cls-8, .cls-9 {
        stroke-linejoin: round;
      }

      .cls-1, .cls-7 {
        stroke: #9d9d9c;
      }

      .cls-1, .cls-9 {
        stroke-width: .28px;
      }

      .cls-2 {
        stroke-width: .43px;
      }

      .cls-2, .cls-3, .cls-4, .cls-5, .cls-6, .cls-8, .cls-9 {
        stroke: #1d1d1b;
      }

      .cls-3 {
        stroke-width: .43px;
      }

      .cls-4 {
        stroke-width: .57px;
      }

      .cls-5 {
        stroke-width: .57px;
      }

      .cls-6 {
        stroke-width: .85px;
      }

      .cls-7 {
        stroke-miterlimit: 10;
        stroke-width: .28px;
      }

      .cls-8 {
        stroke-width: .28px;
      }
    </style>
  </defs>
  <path class="cls-6" d="M516.64,118.99h-.05c.04-1.84.05-3.32.05-4.41v-.04c0-1.12-.01-2.66-.05-4.59h.03l.02.17v-.17c.14-14.84-1.21-32.48-1.82-37.83-.61-5.37-2.88-5.61-2.88-5.61-.25-1.05-.51-2.06-.77-3.04,1.55-1.42.5-5.01.5-5.01-3.11-11.63-8.65-22.17-10.47-24.64-1.82-2.46-6.75-4.51-12.06-7.36-5.21-2.79-16.81-7.78-17.26-7.97,0,0-.01,0-.01,0-1.63-1.21-3.18-2.38-4.1-3.1-2.55-1.99-5.75-2.84-6.89-3.19-1.14-.34-15.59-3.75-17.92-4.27-2.34-.51-5.69-.67-5.69-.67-1.21-.04-2.65-.08-4.28-.12v-.04c-.65-.74-1.77-1.52-3.66-1.63-3.72-.21-22.96-.54-36.17-.54-12.45,0-29.74,0-35.34.6-2.13.22-2.81.79-3.38,1.48-3.49.12-6.78.29-8.21.5-1.53.24-3.55,1.26-6.35,2.77l-113.52,5.33-.06-.02,3.38-8.57c2.99-6.93.68-6.49.68-6.49-5.99-.45-10.18.74-13.69,2.9v-.03c-.88.52-1.81,1.21-2.75,2.01-2.99,2.47-6.17,5.93-8.57,8.73-.26.31-.52.61-.76.9h-.01s-36.65-1.35-36.65-1.35c-1.78-.5-3.7-1.28-6.7-2.28-2.48-.83-7.86-1.06-10.14-1.11-.63-.49-1.54-.91-2.84-.98-3.43-.19-21.16-.41-33.34-.36-11.48.04-27.41.11-32.58.68-1.47.16-2.19.5-2.68.92v.02c-.2,0-.41,0-.63,0h-.08c-2.39.03-5.77.12-8.46.3-6.25.73-15.2,2.09-21.42,4.15,0,0-10.87,3.36-15.42,9.84-4.55,6.49-14,21.91-15.71,24.58-.4.63-.97,1.48-1.62,2.42,0,0,0,.01,0,.01-2.12,3.07-5.07,7.15-5.64,7.98-.74,1.08-4.32,7-5.18,10.13-.86,3.12-2.73,10.81-3.3,14.74-.57,3.92-1.53,24.36-1.53,28.26v3.01c0,3.91.97,24.34,1.53,28.27.57,3.92,2.45,11.61,3.3,14.74.86,3.13,4.44,9.05,5.18,10.13.57.82,3.51,4.9,5.64,7.98,0,0,0,0,0,.01.65.95,1.22,1.79,1.62,2.41,1.71,2.68,11.15,18.1,15.71,24.59,4.55,6.48,15.42,9.84,15.42,9.84,6.22,2.06,15.17,3.42,21.42,4.15,2.7.19,6.07.26,8.46.3h.08c.22,0,.43,0,.63,0h0c.49.44,1.21.79,2.68.95,5.17.57,21.1.63,32.58.68,12.17.05,29.91-.17,33.34-.36,1.3-.07,2.21-.49,2.84-.98h0c2.28-.06,7.66-.28,10.14-1.11,2.99-.99,4.9-1.77,6.67-2.28l36.67-1.33h.01c.24.28.5.58.76.89,2.4,2.79,5.58,6.26,8.57,8.73.95.8,1.87,1.48,2.75,2.01v-.04c3.51,2.17,7.7,3.36,13.69,2.91,0,0,2.31.43-.68-6.49l-3.38-8.57.06-.02,113.51,5.32c2.8,1.5,4.83,2.53,6.36,2.76,1.43.22,4.72.39,8.21.5h0c.57.7,1.25,1.27,3.38,1.49,5.61.59,22.89.6,35.34.6,13.21,0,32.45-.32,36.17-.54,1.89-.11,3.01-.89,3.66-1.63v-.03c1.62-.03,3.06-.08,4.28-.12,0,0,3.35-.16,5.69-.68,2.33-.51,16.78-3.92,17.92-4.26,1.14-.34,4.34-1.2,6.89-3.19.92-.72,2.48-1.88,4.1-3.1h0c.37-.16,12.04-5.18,17.27-7.99,5.31-2.84,10.24-4.89,12.06-7.36,1.82-2.46,7.36-13,10.47-24.63,0,0,1.05-3.6-.5-5.01.26-.97.51-1.99.77-3.04,0,0,2.28-.24,2.88-5.61.61-5.37,1.97-23.14,1.82-38Z"/>
  <path class="cls-8" d="M163.15,19.63c0,2.9-5.66,4.93-12.25,4.53-6.59-.39-11.47-3.13-11.3-6.03.09-1.47,1.26-2.63,3.41-3.17,2.1-.52,5.11-.46,8.35-.26,2.77.17,5.28.74,7.27,1.39,2.75.88,4.51,2.02,4.51,3.54Z"/>
  <path class="cls-8" d="M146.03,114.4c0-2.42.09-4.79.23-7.1.32-4.88.95-9.49,1.75-13.75.21-1.13.43-2.23.67-3.31,3.15-14.66,8.01-24.29,8.01-24.29,0,0,2.64-5.78,3.96-8,0,0,4.17-8.67,11.16-16.39,2.96-3.28,6.43-6.38,10.31-8.59"/>
  <g>
    <line class="cls-3" x1="152.51" y1="134.55" x2="153.25" y2="134.45"/>
    <g>
      <path class="cls-3" d="M160.79,66.97l2.01-4.67-.86-.47s-.83-.48-1.2.32c-.36.79-1.57,3.36-1.57,3.36l-.24,1.51-1.75,3.63.08.05.41.23.16.21.06.08,1.41-3.01,1.07-1.23h.44Z"/>
      <line class="cls-3" x1="160.29" y1="66.4" x2="161.91" y2="62.53"/>
      <path class="cls-3" d="M157.23,70.72s-1.89,3.87-8.55,19.52c-.71,1.66-1.48,3.47-2.3,5.41,0,0-5.7,11.22-6.45,12.66"/>
      <path class="cls-3" d="M157.8,71.15s-1.49,3.05-6.49,14.68c-.96,2.24-2.05,4.8-3.29,7.73-.34.82-.7,1.66-1.08,2.55l.07.47s-2.19,8.62-2.67,10.2c-.47,1.6-.96,3.26-1.48,3.82"/>
      <line class="cls-3" x1="142.97" y1="107.35" x2="146.71" y2="96.57"/>
      <path class="cls-3" d="M162.32,61.78c3-6.58,6.32-13.68,9.53-20.19l.78.3c-4.03,8.19-8.24,17.29-11.77,25.11-4.92,10.89-8.52,19.3-8.52,19.3l-.72-.34"/>
      <path class="cls-3" d="M142.97,109.59s-.13.37-.26.96c-.19.77-.39,1.92-.33,3.1.11,2.08.27,4.51.44,5.24.16.71.25,1.71.07,2.35-.19.65-.63,1.29-1.62,1.21-.98-.08-1.24-.64-1.24-.64"/>
      <line class="cls-3" x1="141.52" y1="107.22" x2="142.34" y2="107.77"/>
      <path class="cls-3" d="M142.55,108.14s-.47.93.19,1.39"/>
      <path class="cls-3" d="M142.21,120.85c-.09.69-.65,1.18-1.24,1.12-.6-.08-1.02-.69-.94-1.37.09-.7.64-1.18,1.24-1.12.6.07,1.03.69.94,1.37Z"/>
    </g>
    <g>
      <path class="cls-3" d="M155.21,143.63c1.26,4.84,4.24,15.91,5.51,20.33l1.11-.24c-2.69-9.36-5.46-20.28-7.82-30.02-3.54-14.64-6.15-26.6-6.15-26.6l-1.11.24s2.59,11.91,6.13,26.5"/>
      <path class="cls-3" d="M153.44,139.56s1.98,9.91,2.38,13.16c0,0,.43,3.76.94,8.35.08.68.15,1.35.21,2,.35,3.72.5,6.71.5,6.71l.2,2.89s.45.68.41,1.5-.33,4.45-.33,4.45"/>
      <path class="cls-5" d="M157.7,159.09s1.81,9.1,2.42,12.07c.09.42.15.72.18.85l.31.95s.74,1.08.52,2.54c-.23,1.46-1.01,4.23,0,6.99"/>
      <path class="cls-5" d="M157.69,159.24l-.02-.15-.28-1.94c-.7-5.48-1.61-10.42-2.22-13.51-.41-2.11-.7-3.36-.7-3.36,0,0-.47-.32-.88-.7-.03-.03-.06-.05-.08-.08-.23-.22-.42-.45-.48-.64-.14-.54-.86-4.32-.86-4.32l.49-.58.24-.05.92-.19"/>
      <line class="cls-8" x1="159.55" y1="172.06" x2="157.69" y2="159.24"/>
      <line class="cls-3" x1="153.78" y1="133.86" x2="153.51" y2="134.21"/>
      <line class="cls-3" x1="153.47" y1="134.81" x2="154.65" y2="139.86"/>
      <path class="cls-8" d="M159.9,173.79s-.81,3.4-.52,6.58"/>
      <line class="cls-8" x1="158.26" y1="172.81" x2="159.75" y2="172.74"/>
    </g>
  </g>
  <path class="cls-5" d="M390.27,44.83c-.92-.93-3.46-1.58-3.46-1.58-1.73-.35-3.47-.69-5.19-1.03-13.18-2.62-50.67-6.73-68.29-8.51-.12-.02-.23-.03-.35-.04-.32-.03-.65-.07-.98-.1-17.59-1.69-46.31-2.55-61.54-2.89-11.17-.25-38.08.37-53.66.51"/>
  <path class="cls-5" d="M81.7,10.57c.23,0,.47-.02.69-.03,1.77-.06,2.98-.08,2.98-.08,5.66-.29,15.5-.7,28.35-.39,12.85.3,29.48-.07,36.29.23,0,0,8,.06,11.2,1.13s5.16,1.88,7.05,2.38,3.69.66,6.39.74c3.18.23,7.63.2,10.33.33,6.79.32,19.59.16,19.59.16"/>
  <path class="cls-5" d="M174.76,35.26c-8.71.22-19.83,1.79-19.83,1.79-36.75,5.81-73.74,15.01-99.86,22.64-20.4,5.94-34.22,10.27-35.51,10.75,0,0-1.51.45-2.16.94s-1.31,1.12-1.72,2.7c0,0-4.24,15.09-4.24,40.47"/>
  <path class="cls-3" d="M79.2,10.57c-.09,0-.19.02-.28.04-1.31.21-3.37,1.08-3.37,1.08-3.81,1.34-8.62,3.18-13.35,5.09-3.76,1.51-7.46,3.06-10.57,4.44-6.44,2.84-8.6,5.47-16.45,15.21-7.63,9.46-16.59,33.18-16.59,33.18,0,0-.37,1.01-.45,1.37"/>
  <path class="cls-5" d="M139.38,114.35c0-2.44.05-4.82.16-7.12.15-3.66.43-7.16.82-10.49,0-.16.03-.32.06-.48,2.3-19.3,8.22-33.08,15.08-42.85.72-1.04,1.46-2.04,2.2-2.98,1.11-1.41,2.22-2.72,3.35-3.94,4.75-5.16,9.6-8.73,13.75-11.17,2.14-1.25,4.1-2.2,5.77-2.91,1.34-.58,2.49-.99,3.4-1.28,0,0,2.37-.5,5.3-.85.23-.03.44-.06.68-.08.7-.08,1.42-.15,2.14-.2"/>
  <path class="cls-8" d="M314.64,31.61c-17.47-1.76-47.09-2.37-62.61-2.72-12.94-.29-45.18.21-59.95,1-.08,0-.15,0-.22,0"/>
  <path class="cls-8" d="M392.18,43.71v-.05c-.09-1.27-3.57-2.42-3.57-2.42"/>
  <path class="cls-5" d="M192.08,30.02l4.7,1.24,37.77,10s15.58,4.24,22.2,5.36c6.63,1.13,22.2,1.86,31.84,2.11,8.75.23,20.49.15,32.89-.11,27.03-.56,57.21-1.96,66.49-2.87,1.03-.11,1.8-.28,2.39-.5,1.59-.59,1.79-1.43,1.82-1.6v-.03"/>
  <path class="cls-8" d="M81.84,28.5c17.39-.92,58.71-2.91,96.77-3.16"/>
  <path class="cls-3" d="M25.03,114.59s.03-1.93-.4-3.09h-3.39s-2.92.62-2.92,3.09"/>
  <path class="cls-3" d="M312.62,33.67c1.8,1.9,5.2,6.07,10.59,14.81"/>
  <path class="cls-3" d="M310.32,33.46s2.85,1.69,11.15,15.16c.02.03.03.05.05.08"/>
  <path class="cls-5" d="M216.23,22.12s0,.02,0,.03c-.59,1.6-2.19,2.75-4.07,2.75h-6.85c-2.39,0-4.33-1.85-4.33-4.13,0-.68.18-1.31.48-1.88,0,0,1.58-2.07,3.87-4.75,2.4-2.8,5.58-6.27,8.58-8.73.94-.8,1.87-1.49,2.75-2.02"/>
  <path class="cls-5" d="M226.28,15.58l-.64,1.63c-1.87,4.42-3.13,4.56-3.13,4.56l-6.29.38-10.18.61c-1.68,0-3.05-1.3-3.05-2.92,0-.2.03-.39.07-.59,0,0,1.42-4.33,6.71-9.9,1.36-1.43,2.71-2.76,4.13-3.95,4.09-3.38,8.81-5.46,16.44-4.89,0,0,2.31-.43-.68,6.49l-3.38,8.57Z"/>
  <path class="cls-3" d="M363.97,56c.16,0,.24,0,.24,0"/>
  <path class="cls-3" d="M356.81,60.81c.97-4.09,4.67-4.75,6.44-4.82"/>
  <path class="cls-8" d="M239.76,54.86s64.43,3.66,116.73,7.21"/>
  <path class="cls-5" d="M363.97,56c.06,0,.09,0,.09,0l68.69,2.64s1.85.1,2.34,2.18c.48,2.1,5.26,20.27,5.26,53.76"/>
  <path class="cls-4" d="M363.25,56c.34-.02.59,0,.71,0"/>
  <path class="cls-5" d="M356.57,114.59v-51.61s0-.02,0-.02c0-.31,0-.61.04-.88.03-.46.1-.87.19-1.26.96-4.21,4.77-4.78,6.44-4.82"/>
  <path class="cls-5" d="M180.59,32.5s.55.16,1.55.44c5.5,1.58,24.56,7.01,38.31,10.92,7.93,2.24,14.1,3.99,14.9,4.17,2.13.5,4.04,1.53,3.52,6.75-.08.76-.21,1.62-.39,2.58-1.55,7.84-5.28,17.76-5.28,57.21"/>
  <path class="cls-8" d="M59.99,49.77c-11.64,2.21-24.34,1.23-25.08-6.8-.68-7.41,8.81-16.77,21.92-20.18,3.92-1.02,7.71-1.39,11.17-1.28"/>
  <path class="cls-5" d="M68.11,21.51c5.3.06,9.52,2.16,11.02,6.08.34.87.52,1.8.56,2.75.07,1.75-.36,3.61-1.19,5.46-2.07,4.57-6.7,9.08-12.81,11.93-3.21,1.5-6.43,2.34-9.4,2.59-.04,0-.07.01-.1.01-.25.02-.49.04-.73.04-5.86.29-11.16-1.63-12.77-5.84-2.49-6.5,3.03-15.62,12.95-20.24,3.92-1.83,8.87-2.8,12.35-2.78.04,0,.08,0,.11,0Z"/>
  <path class="cls-3" d="M313.29,33.76l.04-.04c.13-.16.66-.77,1.37-1.7.08-.1.17-.21.24-.32,2.16-2.84,5.67-8.03,5.67-11.82,0,0,.26-1.57-3.68-1.64-.24,0-.51,0-.78,0"/>
  <path class="cls-3" d="M82.39,10.55c-3.99,1.55-13.06,5.05-15.17,5.86-2.71,1.02-4.65.54-4.65.54l-.36-.14"/>
  <path class="cls-5" d="M189.26,30.28s-7.42-7.33-14.33-15.73"/>
  <path class="cls-8" d="M315,31.74s27.96,2.17,44.22,4.48c16.26,2.32,24.46,3.66,29.38,5.01"/>
  <path class="cls-8" d="M189.95,30.4s44.88,13,52.2,14.8c7.3,1.79,24.46,4.78,34.52,5.15,10.07.38,72.97,2.42,86.5,2.72,8.67.19,43.77,1.84,69.61,3.09,14.5.7,26.08,1.26,28.44,1.37"/>
  <path class="cls-5" d="M226.34,15.6s7.17.18,17.14.43c12.13.31,28.39.72,40.97,1.05l26.16.91c2,.09,3.35.24,5.53.24,0,0,5.53.84,15.16-3.5,7.74-3.78,12.14-6.8,14.91-7.23,2.91-.45,13.56-.68,17.81-.68s57.53-.16,73.23.42c0,0,3.35.16,5.69.67s16.79,3.93,17.93,4.27,4.34,1.2,6.89,3.19c2.56,1.99,9.85,7.34,10.53,7.85s2.44,1.59,3.52,2.05,8.14,4.27,11.61,7.17c3.47,2.9,10.74,10.41,13.24,17.09,2.5,6.68,6.49,18.07,8.16,33.7s1.82,26.81,1.82,31.29"/>
  <path class="cls-5" d="M412.19,6.88c.61.11,12.24,5.59,19.96,9.28.13.05,14.41,7.03,14.53,7.08,8.75,3.84,17.33,8.48,22.95,11.28,0,0,5.42,2.61,11.54,8.14l1.29,1.2"/>
  <path class="cls-5" d="M70.44,10.91c2.72-.19,6.15-.26,8.55-.3,1.31-.03,2.31-.03,2.71-.04"/>
  <path class="cls-4" d="M70.44,10.91c-6.25.73-15.2,2.09-21.42,4.16,0,0-10.87,3.36-15.42,9.84-4.55,6.49-14,21.91-15.71,24.59s-6.53,9.33-7.27,10.41-4.33,7-5.18,10.13-2.73,10.81-3.3,14.74-1.54,24.36-1.54,28.27v1.51"/>
  <path class="cls-8" d="M155.91,114.55v-6.73c0-1.46.78-2.28,1.16-3,.37-.7.45-1.61.45-1.61,2.98-31.93,21.72-61.21,21.72-61.21,0,0,1.79-2.64,5.38-2.64s13.77,1.27,23.83,3.89c3.82,1,7.75,2.07,11.29,3.08,5.81,1.68,10.56,3.22,12,3.99,2.33,1.24,4.02,2.34,3.13,6.78-.9,4.44-4.28,25.47-4.43,38.85v1.57s.15.99-1.33,1.02-6.18-.23-9.9.3c0,0-3,.27-3.38,4.06-.38,3.79-.57,6.11-.57,6.11,0,0-.05,1.66-1.34,1.84l-2.42.36s-1.82.19-1.82,2.47v.89"/>
  <path class="cls-8" d="M140.31,96.79s.02,0,.05-.04c.33-.25,2.3-1.74,3.04-2.2.79-.5,1.29-1.05,1.49-2.19s4.05-19.48,8.9-27.79c0,0,1.08-1.64,1.19-3.29.11-1.62.54-6.51.52-7.85v-.07"/>
  <path class="cls-8" d="M359.39,35.16s2.34-2.05,4.67-3.99c3.78-3.14,7.83-5.53,13.73-7.27,5.89-1.75,22.27-2.3,32.41,0,10.14,2.29,27.04,6.87,48.12,15.74"/>
  <path class="cls-8" d="M394.41,43.52s33.52,1.29,62.61,7.01"/>
  <path class="cls-5" d="M432.98,7.09c-.65-.74-1.77-1.52-3.66-1.63-3.72-.22-22.96-.54-36.16-.54-12.45,0-29.74,0-35.35.6-2.13.23-2.81.8-3.38,1.49"/>
  <path class="cls-5" d="M151.06,10.31c-.63-.49-1.54-.91-2.84-.98-3.43-.18-21.17-.41-33.34-.36-11.48.05-27.41.12-32.58.68-1.47.16-2.19.5-2.68.93"/>
  <path class="cls-5" d="M467.76,33.62s-.95,1.57-1.65,2.92-3.13,5.82-4.26,8.68c-1.13,2.86-.75,5.01-.62,7.22.13,2.21.84,5.93.94,7.02s-.94,1.01-.94,1.01c-13.12-1.24-25.03-2.01-25.03-2.01,0,0-1.41.17-2.43.52"/>
  <path class="cls-9" d="M436.14,58.98s5.6,21.41,5.6,55.61"/>
  <path class="cls-4" d="M476.01,114.59s-.21-20.94-3.19-34.28c-2.18-9.78-4.05-14.17-5.4-16.17s-3.34-3.22-5.38-4.01"/>
  <path class="cls-9" d="M478.29,114.59s.09-27.64-5.52-43.92c0,0-2.94-10.53-9.45-10.11"/>
  <line class="cls-9" x1="462.66" y1="57.54" x2="467.6" y2="57.73"/>
  <path class="cls-1" d="M63.91,24.04c4.04.03,7.25,1.72,8.38,4.9.25.71.39,1.46.42,2.23.04,1.42-.29,2.94-.93,4.44-1.59,3.72-5.14,7.41-9.82,9.76-2.45,1.23-4.91,1.93-7.18,2.14-.03,0-.05.01-.07.01-.19.02-.38.03-.56.04-4.47.26-8.1-1.44-9.31-4.85-1.87-5.28,2.75-12.64,10.34-16.44,2.99-1.5,6-2.23,8.65-2.23.03,0,.06,0,.09,0Z"/>
  <path class="cls-4" d="M445.48,22.68s8.26-.06,17.05,4.04,16.01,6.23,27.04,15.84c11.04,9.62,20.16,33.45,20.16,72.12"/>
  <path class="cls-8" d="M143.69,77.06s-55.29,3.82-121.51,8.41"/>
  <path class="cls-3" d="M378.78,44.34c-.14-1.03-3.93-1.64-3.93-1.64-19.23-3.28-41.74-5.57-43.65-5.74s-1.64.76-1.64.76l2.79,8.58s.27,1.15,2.46,1.04,24.15-.6,41.63-2.02c0,0,2.46-.16,2.35-.98Z"/>
  <path class="cls-8" d="M436.2,114.59c0-7.65-.81-21.27-2.13-35.21-1.32-13.94-8.39-15.29-8.39-15.29l-55.45-2.01s-8.86-.88-8.86,6.68v45.8"/>
  <path class="cls-4" d="M504.82,114.77c0-18.64-2.35-32.99-2.4-33.59s.38-.63.38-.63l2.43-.19c0-3.36-2.87-13.69-2.87-13.69,0,0-5.7-21.55-23.07-31.71"/>
  <path class="cls-5" d="M287.04,17.26s.76,1.15,4.92,1.31,19.45.76,19.45.76c0,0,1.69-.11,1.75-1.15"/>
  <path class="cls-1" d="M70.96,27.04s-3.53.54-4.3.77-2.3.97-3.1,2.85-1.05,2.87-1.08,3.9l.68-.04,8.88-.53"/>
  <line class="cls-1" x1="63.19" y1="37.14" x2="63.16" y2="34.51"/>
  <path class="cls-1" d="M71.1,36.54l-8.62.6s.71,4.24,2.82,5.95"/>
  <path class="cls-1" d="M63.61,34.24s.8-2.3,1.71-3.44,1.76-1.65,3.3-1.96,3.1-.48,3.1-.48"/>
  <path class="cls-1" d="M71.92,28.86l-1.79.37s-1.51.46-2.13,2.06-.83,2.06-.85,2.75"/>
  <path class="cls-1" d="M62.02,34.51l-3.98.27s.46-2.19,1.11-3.61,1.91-3.57,3.61-4.24,3.61-.99,3.61-.99l1.48,1.34"/>
  <path class="cls-7" d="M67.26,27.28l-3.36.73s-2.24.63-3,2.11-1.61,4.4-1.61,4.4"/>
  <path class="cls-7" d="M62.02,37.14l-3.22.26s-.85.17-.54.97,1.22,3.3,2.11,4.41,2.3,2.22,2.3,2.22"/>
  <line class="cls-7" x1="58.91" y1="34.78" x2="59.05" y2="37.38"/>
  <path class="cls-7" d="M59.16,37.7s.53,2.49,1.9,4.02,2.79,2.31,2.79,2.31"/>
  <path class="cls-7" d="M63.27,37.47s1.1,2.58,3.09,4.59"/>
  <path class="cls-7" d="M67.14,37.14s.13,1.7,1.18,3.08"/>
  <path class="cls-7" d="M49.53,37.59c0,.13,0,.21,0,.21,0,0,.15.72,1.4.7s7.09-.28,7.09-.28"/>
  <path class="cls-7" d="M58.16,34.24l-7.16,1.02s-1.42.3-1.46.82c0,.12-.01.29-.02.46"/>
  <polyline class="cls-7" points="58.91 35.81 47.03 37.14 47.03 37.59 58.91 36.45"/>
  <path class="cls-9" d="M16.26,51.92s11.65-15.75,17.11-21.12,9.79-8.87,16.85-11.68,19.39-8.03,28.06-8.38"/>
  <path class="cls-5" d="M471.86,18.47s11.96,5.14,17.27,7.98,10.24,4.89,12.06,7.36,7.36,13,10.47,24.64c0,0,1.04,3.6-.5,5.01"/>
  <path class="cls-5" d="M511.93,66.5s2.28.24,2.88,5.61c.61,5.37,1.97,23.14,1.82,38"/>
  <path class="cls-4" d="M331.34,16.84s5.19-2.79,8.46-3.86,7.14-2.39,12.28-2.3,10.81.62,10.95,3.32-7.98,5.41-9.97,5.98-5.23,1.42-7.58,1.42-4.79-.75-6.03-1.24-4.08-1.51-7.45-1.73c0,0-1.86-.04-1.91-.58s1.24-1.02,1.24-1.02Z"/>
  <path class="cls-4" d="M359.66,14.05c.04,1.46-2.26,2.66-4.12,3.28s-6.12,2.57-8.97,2.57c-.87,0-1.75-.07-2.63-.19"/>
  <path class="cls-9" d="M332.32,17.29c.05-.15.15-.28.26-.36.31-.22,5.1-2.39,5.1-2.39,0,0,7.18-3.24,13.21-2.93s8.73.98,8.78,2.44"/>
  <path class="cls-4" d="M343.94,19.71c-2-.26-3.96-.77-5.68-1.23-2.48-.66-4.39-.71-5.32-.66-.6.03-.7-.26-.62-.52"/>
  <path class="cls-4" d="M347.58,19.83s-2.5-.51-3.83-1.26,0-1.68,0-1.68l3.41-1.91s.8-.22,1.95-.22h8.6c.22,0,.92.2,1.08.87"/>
  <path id="Axo_Path" data-name="Axo Path" class="cls-2" d="M442.9,114.59c0-.31.22-.55.48-.55h0l23.28-.08c.32,0,.48.33.48.64"/>
  <path id="Axo_Path-2" data-name="Axo Path" class="cls-2" d="M443.39,107.5c-.27,0-.48-.25-.48-.55s.22-.55.48-.55h0l22.45-.08c.27,0,.48.25.48.55s-.22.55-.48.55l-22.45.08Z"/>
  <path id="Axo_Path-3" data-name="Axo Path" class="cls-2" d="M443.38,99.75c-.27,0-.48-.25-.47-.56s.22-.55.49-.55h0l21.96.25c.27,0,.48.25.47.56s-.22.55-.49.55l-21.96-.25Z"/>
  <path id="Axo_Path-4" data-name="Axo Path" class="cls-2" d="M443.37,91.85c-.27,0-.47-.26-.46-.57s.23-.55.5-.54h0l21.33.65c.27,0,.47.26.46.57s-.23.55-.5.54l-21.33-.65Z"/>
  <path id="Axo_Path-5" data-name="Axo Path" class="cls-2" d="M442.19,84.24c-.27-.01-.47-.27-.46-.57s.24-.54.51-.53h0l21.53.92c.27.01.47.27.46.57s-.24.54-.51.53l-21.53-.92Z"/>
  <path id="Axo_Path-6" data-name="Axo Path" class="cls-2" d="M440.93,76.56c-.27-.01-.47-.27-.45-.58s.24-.54.51-.53h0l21.32,1.01c.27.01.47.27.45.58s-.24.54-.51.53l-21.32-1.01Z"/>
  <path id="Axo_Path-7" data-name="Axo Path" class="cls-2" d="M439.88,68.74c-.27-.02-.46-.28-.44-.59s.26-.53.52-.51h0l21.08,1.59c.27.02.46.28.44.59s-.26.53-.52.51l-21.08-1.59Z"/>
  <path class="cls-2" d="M437.03,59s23.25,1.76,24.4,1.92,4.98,1.51,6.44,6.54,6.66,21,6.66,47.13"/>
  <line class="cls-2" x1="437.94" y1="61.85" x2="459.6" y2="63.44"/>
  <path class="cls-2" d="M437.6,60.46s12.6.9,20.14,1.73c0,0,3.18.42,4.43,3.88s7.2,19.76,7.2,48.52"/>
  <g>
    <path class="cls-2" d="M445.34,107.5c.05,1.93.07,3.89.07,5.88"/>
    <path class="cls-2" d="M445.03,99.77c.12,2.15.21,4.36.28,6.62"/>
    <path class="cls-2" d="M444.48,91.89c.19,2.17.35,4.43.49,6.77"/>
    <path class="cls-2" d="M443.72,84.31c.23,2.05.46,4.21.66,6.47"/>
    <path class="cls-2" d="M442.73,76.64c.29,2.01.58,4.2.86,6.55"/>
    <path class="cls-2" d="M441.47,68.86c.34,1.86.71,4.1,1.1,6.67"/>
    <path class="cls-2" d="M440.22,62.58s.43,1.84,1.05,5.15"/>
    <path class="cls-2" d="M448.43,107.48c.05,1.92.07,3.88.07,5.88"/>
    <path class="cls-2" d="M448.12,99.8c.12,2.13.21,4.32.28,6.58"/>
    <path class="cls-2" d="M447.56,91.98c.19,2.15.36,4.39.5,6.71"/>
    <path class="cls-2" d="M446.78,84.44c.24,2.03.47,4.18.68,6.43"/>
    <path class="cls-2" d="M445.73,76.79c.31,2,.62,4.18.91,6.54"/>
    <path class="cls-2" d="M444.4,69.08c.36,1.84.76,4.05,1.16,6.59"/>
    <path class="cls-2" d="M443.02,62.78s.48,1.83,1.15,5.17"/>
    <path class="cls-2" d="M451.53,107.47c.05,1.91.07,3.88.07,5.88"/>
    <path class="cls-2" d="M451.22,99.84c.12,2.1.21,4.28.28,6.53"/>
    <path class="cls-2" d="M450.65,92.08c.19,2.12.36,4.34.5,6.65"/>
    <path class="cls-2" d="M449.84,84.57c.25,2.01.49,4.15.7,6.4"/>
    <path class="cls-2" d="M448.74,76.93c.32,1.99.65,4.17.96,6.53"/>
    <path class="cls-2" d="M447.33,69.3c.38,1.81.8,3.99,1.23,6.51"/>
    <path class="cls-2" d="M445.82,62.98s.53,1.82,1.26,5.19"/>
    <path class="cls-2" d="M454.62,107.46c.05,1.91.07,3.87.07,5.88"/>
    <path class="cls-2" d="M454.31,99.87c.12,2.08.21,4.25.28,6.48"/>
    <path class="cls-2" d="M453.74,92.17c.19,2.1.37,4.3.51,6.59"/>
    <path class="cls-2" d="M452.91,84.7c.26,1.99.5,4.12.72,6.36"/>
    <path class="cls-2" d="M451.76,77.07c.34,1.98.68,4.15,1,6.52"/>
    <path class="cls-2" d="M450.27,69.52c.4,1.79.85,3.94,1.3,6.43"/>
    <path class="cls-2" d="M448.62,63.18s.58,1.8,1.38,5.21"/>
    <path class="cls-2" d="M457.72,107.45c.05,1.9.07,3.86.07,5.88"/>
    <path class="cls-2" d="M457.41,99.9c.12,2.06.21,4.21.28,6.44"/>
    <path class="cls-2" d="M456.83,92.26c.2,2.07.37,4.25.51,6.53"/>
    <path class="cls-2" d="M455.98,84.83c.27,1.98.51,4.08.74,6.32"/>
    <path class="cls-2" d="M454.78,77.21c.36,1.97.71,4.14,1.04,6.51"/>
    <path class="cls-2" d="M453.22,69.75c.43,1.76.89,3.88,1.36,6.35"/>
    <path class="cls-2" d="M451.42,63.38s.64,1.78,1.51,5.23"/>
    <path class="cls-2" d="M460.81,107.44c.05,1.9.07,3.86.07,5.88"/>
    <path class="cls-2" d="M460.5,99.94c.12,2.04.21,4.18.28,6.39"/>
    <path class="cls-2" d="M459.92,92.36c.2,2.05.37,4.21.51,6.48"/>
    <path class="cls-2" d="M459.06,84.97c.27,1.96.52,4.05.75,6.28"/>
    <path class="cls-2" d="M457.82,77.36c.37,1.96.74,4.12,1.08,6.5"/>
    <path class="cls-2" d="M456.18,69.97c.45,1.74.94,3.83,1.42,6.27"/>
    <path class="cls-2" d="M454.23,63.58s.7,1.75,1.65,5.25"/>
    <path class="cls-2" d="M463.91,107.43c.05,1.89.07,3.85.07,5.88"/>
    <path class="cls-2" d="M463.6,99.97c.12,2.03.21,4.14.28,6.35"/>
    <path class="cls-2" d="M463.02,92.45c.2,2.03.37,4.16.51,6.42"/>
    <path class="cls-2" d="M462.14,85.1c.28,1.94.53,4.02.76,6.25"/>
    <path class="cls-2" d="M460.86,77.5c.39,1.95.77,4.11,1.12,6.49"/>
    <path class="cls-2" d="M459.15,70.19c.47,1.71.98,3.77,1.48,6.19"/>
    <path class="cls-2" d="M457.03,63.78s.77,1.72,1.8,5.28"/>
    <path class="cls-2" d="M459.83,63.98s7.24,14.33,7.24,49.31"/>
  </g>
  <line class="cls-2" x1="500.06" y1="81.83" x2="502.42" y2="81.83"/>
  <path class="cls-8" d="M215.81,114.59c0-.85-.69-1.54-1.54-1.54s-1.54.69-1.54,1.54"/>
  <path class="cls-8" d="M146.03,114.7c0,2.42.09,4.79.23,7.1.32,4.88.95,9.49,1.75,13.75.21,1.13.43,2.23.67,3.31,3.15,14.66,8.01,24.29,8.01,24.29,0,0,2.64,5.78,3.96,8,0,0,4.17,8.67,11.16,16.39,2.96,3.28,6.43,6.38,10.31,8.59"/>
  <path class="cls-5" d="M390.27,184.26c-.92.93-3.46,1.58-3.46,1.58-1.73.35-3.47.69-5.19,1.03-13.18,2.62-50.67,6.73-68.29,8.51-.12.02-.23.03-.35.04-.32.03-.65.07-.98.1-17.59,1.69-46.31,2.55-61.54,2.89-11.17.25-38.08-.37-53.66-.51"/>
  <path class="cls-5" d="M81.7,218.53c.23,0,.47.02.69.03,1.77.06,2.98.08,2.98.08,5.66.29,15.5.7,28.35.39,12.85-.3,29.48.07,36.29-.23,0,0,8-.06,11.2-1.13s5.16-1.88,7.05-2.38,3.69-.66,6.39-.74c3.18-.23,7.63-.2,10.33-.33,6.79-.32,19.59-.16,19.59-.16"/>
  <path class="cls-5" d="M174.76,193.84c-8.71-.22-19.83-1.79-19.83-1.79-36.75-5.81-73.74-15.01-99.86-22.64-20.4-5.94-34.22-10.27-35.51-10.75,0,0-1.51-.45-2.16-.94s-1.31-1.12-1.72-2.7c0,0-4.24-15.09-4.24-40.47"/>
  <path class="cls-3" d="M79.2,218.53c-.09,0-.19-.02-.28-.04-1.31-.21-3.37-1.08-3.37-1.08-3.81-1.34-8.62-3.18-13.35-5.09-3.76-1.51-7.46-3.06-10.57-4.44-6.44-2.84-8.6-5.47-16.45-15.21-7.63-9.46-16.59-33.18-16.59-33.18,0,0-.37-1.01-.45-1.37"/>
  <path class="cls-5" d="M139.38,114.74c0,2.44.05,4.82.16,7.12.15,3.66.43,7.16.82,10.49,0,.16.03.32.06.48,2.3,19.3,8.22,33.08,15.08,42.85.72,1.04,1.46,2.04,2.2,2.98,1.11,1.41,2.22,2.72,3.35,3.94,4.75,5.16,9.6,8.73,13.75,11.17,2.14,1.25,4.1,2.2,5.77,2.91,1.34.58,2.49.99,3.4,1.28,0,0,2.37.5,5.3.85.23.03.44.06.68.08.7.08,1.42.15,2.14.2"/>
  <path class="cls-8" d="M314.64,197.49c-17.47,1.76-47.09,2.37-62.61,2.72-12.94.29-45.18-.21-59.95-1-.08,0-.15,0-.22,0"/>
  <path class="cls-8" d="M392.18,185.39v.05c-.09,1.27-3.57,2.42-3.57,2.42"/>
  <path class="cls-5" d="M192.08,199.08l4.7-1.24,37.77-10s15.58-4.24,22.2-5.36c6.63-1.13,22.2-1.86,31.84-2.11,8.75-.23,20.49-.15,32.89.11,27.03.56,57.21,1.96,66.49,2.87,1.03.11,1.8.28,2.39.5,1.59.59,1.79,1.43,1.82,1.6v.03"/>
  <path class="cls-8" d="M81.84,200.6c17.39.92,58.71,2.91,96.77,3.16"/>
  <path class="cls-3" d="M25.03,114.51s.03,1.93-.4,3.09h-3.39s-2.92-.62-2.92-3.09"/>
  <path class="cls-3" d="M312.62,195.42c1.8-1.9,5.2-6.07,10.59-14.81"/>
  <path class="cls-3" d="M310.32,195.64s2.85-1.69,11.15-15.16c.02-.03.03-.05.05-.08"/>
  <path class="cls-5" d="M216.23,206.98s0-.02,0-.03c-.59-1.6-2.19-2.75-4.07-2.75h-6.85c-2.39,0-4.33,1.85-4.33,4.13,0,.68.18,1.31.48,1.88,0,0,1.58,2.07,3.87,4.75,2.4,2.8,5.58,6.27,8.58,8.73.94.8,1.87,1.49,2.75,2.02"/>
  <path class="cls-5" d="M226.28,213.52l-.64-1.63c-1.87-4.42-3.13-4.56-3.13-4.56l-6.29-.38-10.18-.61c-1.68,0-3.05,1.3-3.05,2.92,0,.2.03.39.07.59,0,0,1.42,4.33,6.71,9.9,1.36,1.43,2.71,2.76,4.13,3.95,4.09,3.38,8.81,5.46,16.44,4.89,0,0,2.31.43-.68-6.49l-3.38-8.57Z"/>
  <path class="cls-3" d="M363.97,173.1c.16,0,.24,0,.24,0"/>
  <path class="cls-3" d="M356.81,168.28c.97,4.09,4.67,4.75,6.44,4.82"/>
  <path class="cls-8" d="M239.76,174.24s64.43-3.66,116.73-7.21"/>
  <path class="cls-5" d="M363.97,173.1c.06,0,.09,0,.09,0l68.69-2.64s1.85-.1,2.34-2.18c.48-2.1,5.26-20.27,5.26-53.76"/>
  <path class="cls-4" d="M363.25,173.1c.34.02.59,0,.71,0"/>
  <path class="cls-5" d="M356.57,114.51v51.61s0,.02,0,.02c0,.31,0,.61.04.88.03.46.1.87.19,1.26.96,4.21,4.77,4.78,6.44,4.82"/>
  <path class="cls-5" d="M180.59,196.6s.55-.16,1.55-.44c5.5-1.58,24.56-7.01,38.31-10.92,7.93-2.24,14.1-3.99,14.9-4.17,2.13-.5,4.04-1.53,3.52-6.75-.08-.76-.21-1.62-.39-2.58-1.55-7.84-5.28-17.76-5.28-57.21"/>
  <path class="cls-8" d="M59.99,179.33c-11.64-2.21-24.34-1.23-25.08,6.8-.68,7.41,8.81,16.77,21.92,20.18,3.92,1.02,7.71,1.39,11.17,1.28"/>
  <path class="cls-5" d="M68.11,207.59c5.3-.06,9.52-2.16,11.02-6.08.34-.87.52-1.8.56-2.75.07-1.75-.36-3.61-1.19-5.46-2.07-4.57-6.7-9.08-12.81-11.93-3.21-1.5-6.43-2.34-9.4-2.59-.04,0-.07-.01-.1-.01-.25-.02-.49-.04-.73-.04-5.86-.29-11.16,1.63-12.77,5.84-2.49,6.5,3.03,15.62,12.95,20.24,3.92,1.83,8.87,2.8,12.35,2.78.04,0,.08,0,.11,0Z"/>
  <path class="cls-3" d="M313.29,195.34l.04.04c.13.16.66.77,1.37,1.7.08.1.17.21.24.32,2.16,2.84,5.67,8.03,5.67,11.82,0,0,.26,1.57-3.68,1.64-.24,0-.51,0-.78,0"/>
  <path class="cls-3" d="M82.39,218.55c-3.99-1.55-13.06-5.05-15.17-5.86-2.71-1.02-4.65-.54-4.65-.54l-.36.14"/>
  <path class="cls-5" d="M189.26,198.81s-7.42,7.33-14.33,15.73"/>
  <path class="cls-8" d="M315,197.35s27.96-2.17,44.22-4.48c16.26-2.32,24.46-3.66,29.38-5.01"/>
  <path class="cls-8" d="M189.95,198.7s44.88-13,52.2-14.8c7.3-1.79,24.46-4.78,34.52-5.15,10.07-.38,72.97-2.42,86.5-2.72,8.67-.19,43.77-1.84,69.61-3.09,14.5-.7,26.08-1.26,28.44-1.37"/>
  <path class="cls-5" d="M226.34,213.5s7.17-.18,17.14-.43c12.13-.31,28.39-.72,40.97-1.05l26.16-.91c2-.09,3.35-.24,5.53-.24,0,0,5.53-.84,15.16,3.5,7.74,3.78,12.14,6.8,14.91,7.23,2.91.45,13.56.68,17.81.68s57.53.16,73.23-.42c0,0,3.35-.16,5.69-.67s16.79-3.93,17.93-4.27,4.34-1.2,6.89-3.19,9.85-7.34,10.53-7.85,2.44-1.59,3.52-2.05,8.14-4.27,11.61-7.17,10.74-10.41,13.24-17.09,6.49-18.07,8.16-33.7,1.82-26.81,1.82-31.29"/>
  <path class="cls-5" d="M412.19,222.22c.61-.11,12.24-5.59,19.96-9.28.13-.05,14.41-7.03,14.53-7.08,8.75-3.84,17.33-8.48,22.95-11.28,0,0,6.53-2.53,13.61-9.89"/>
  <path class="cls-5" d="M70.44,218.19c2.72.19,6.15.26,8.55.3,1.31.03,2.31.03,2.71.04"/>
  <path class="cls-4" d="M70.44,218.19c-6.25-.73-15.2-2.09-21.42-4.16,0,0-10.87-3.36-15.42-9.84s-14-21.91-15.71-24.59-6.53-9.33-7.27-10.41-4.33-7-5.18-10.13-2.73-10.81-3.3-14.74-1.54-24.36-1.54-28.27v-1.51"/>
  <path class="cls-8" d="M155.91,114.55v6.73c0,1.46.78,2.28,1.16,3,.37.7.45,1.61.45,1.61,2.98,31.93,21.72,61.21,21.72,61.21,0,0,1.79,2.64,5.38,2.64s13.77-1.27,23.83-3.89c3.82-1,7.75-2.07,11.29-3.08,5.81-1.68,10.56-3.22,12-3.99,2.33-1.24,4.02-2.34,3.13-6.78-.9-4.44-4.28-25.47-4.43-38.85v-1.57s.15-.99-1.33-1.02-6.18.23-9.9-.3c0,0-3-.27-3.38-4.06-.38-3.79-.57-6.11-.57-6.11,0,0-.05-1.66-1.34-1.84l-2.42-.36s-1.82-.19-1.82-2.47v-.89"/>
  <path class="cls-8" d="M140.31,132.31s.02,0,.05.04c.33.25,2.3,1.74,3.04,2.2.79.5,1.29,1.05,1.49,2.19s4.05,19.48,8.9,27.79c0,0,1.08,1.64,1.19,3.29.11,1.62.54,6.51.52,7.85v.07"/>
  <path class="cls-8" d="M359.39,193.94s2.34,2.05,4.67,3.99c3.78,3.14,7.83,5.53,13.73,7.27,5.89,1.75,22.27,2.3,32.41,0,10.14-2.29,27.04-6.87,48.12-15.74"/>
  <path class="cls-8" d="M394.41,185.58s33.52-1.29,62.61-7.01"/>
  <path class="cls-5" d="M432.98,222.01c-.65.74-1.77,1.52-3.66,1.63-3.72.22-22.96.54-36.16.54-12.45,0-29.74,0-35.35-.6-2.13-.23-2.81-.8-3.38-1.49"/>
  <path class="cls-5" d="M151.06,218.79c-.63.49-1.54.91-2.84.98-3.43.18-21.17.41-33.34.36-11.48-.05-27.41-.12-32.58-.68-1.47-.16-2.19-.5-2.68-.93"/>
  <path class="cls-5" d="M467.76,195.48s-.95-1.57-1.65-2.92-3.13-5.82-4.26-8.68c-1.13-2.86-.75-5.01-.62-7.22.13-2.21.84-5.93.94-7.02s-.94-1.01-.94-1.01c-13.12,1.24-25.03,2.01-25.03,2.01,0,0-1.41-.17-2.43-.52"/>
  <path class="cls-9" d="M436.14,170.12s5.6-21.41,5.6-55.61"/>
  <path class="cls-4" d="M476.01,114.51s-.21,20.94-3.19,34.28c-2.18,9.78-4.05,14.17-5.4,16.17s-3.34,3.22-5.38,4.01"/>
  <path class="cls-9" d="M478.29,114.51s.09,27.64-5.52,43.92c0,0-2.94,10.53-9.45,10.11"/>
  <line class="cls-9" x1="462.66" y1="171.56" x2="467.87" y2="171.2"/>
  <path class="cls-1" d="M63.91,205.06c4.04-.03,7.25-1.72,8.38-4.9.25-.71.39-1.46.42-2.23.04-1.42-.29-2.94-.93-4.44-1.59-3.72-5.14-7.41-9.82-9.76-2.45-1.23-4.91-1.93-7.18-2.14-.03,0-.05-.01-.07-.01-.19-.02-.38-.03-.56-.04-4.47-.26-8.1,1.44-9.31,4.85-1.87,5.28,2.75,12.64,10.34,16.44,2.99,1.5,6,2.23,8.65,2.23.03,0,.06,0,.09,0Z"/>
  <path class="cls-4" d="M445.48,206.42s8.26.06,17.05-4.04c8.8-4.1,16.01-6.23,27.04-15.84,11.04-9.62,20.16-33.45,20.16-72.12"/>
  <path class="cls-8" d="M143.69,152.04s-55.29-3.82-121.51-8.41"/>
  <path class="cls-3" d="M378.78,184.76c-.14,1.03-3.93,1.64-3.93,1.64-19.23,3.28-41.74,5.57-43.65,5.74s-1.64-.76-1.64-.76l2.79-8.58s.27-1.15,2.46-1.04,24.15.6,41.63,2.02c0,0,2.46.16,2.35.98Z"/>
  <path class="cls-8" d="M436.2,114.51c0,7.65-.81,21.27-2.13,35.21-1.32,13.94-8.39,15.29-8.39,15.29l-55.45,2.01s-8.86.88-8.86-6.68v-45.8"/>
  <path class="cls-4" d="M504.82,114.33c0,18.64-2.35,32.99-2.4,33.59s.38.63.38.63l2.43.19c0,3.36-2.87,13.69-2.87,13.69,0,0-5.7,21.55-23.07,31.71"/>
  <path class="cls-5" d="M287.04,211.83s.76-1.15,4.92-1.31,19.45-.76,19.45-.76c0,0,1.69.11,1.75,1.15"/>
  <path class="cls-1" d="M70.96,202.06s-3.53-.54-4.3-.77-2.3-.97-3.1-2.85-1.05-2.87-1.08-3.9l.68.04,8.88.53"/>
  <line class="cls-1" x1="63.19" y1="191.96" x2="63.16" y2="194.59"/>
  <path class="cls-1" d="M71.1,192.55l-8.62-.6s.71-4.24,2.82-5.95"/>
  <path class="cls-1" d="M63.61,194.86s.8,2.3,1.71,3.44,1.76,1.65,3.3,1.96,3.1.48,3.1.48"/>
  <path class="cls-1" d="M71.92,200.24l-1.79-.37s-1.51-.46-2.13-2.06-.83-2.06-.85-2.75"/>
  <path class="cls-1" d="M62.02,194.59l-3.98-.27s.46,2.19,1.11,3.61,1.91,3.57,3.61,4.24,3.61.99,3.61.99l1.48-1.34"/>
  <path class="cls-7" d="M67.26,201.82l-3.36-.73s-2.24-.63-3-2.11-1.61-4.4-1.61-4.4"/>
  <path class="cls-7" d="M62.02,191.96l-3.22-.26s-.85-.17-.54-.97,1.22-3.3,2.11-4.41,2.3-2.22,2.3-2.22"/>
  <line class="cls-7" x1="58.91" y1="194.32" x2="59.05" y2="191.72"/>
  <path class="cls-7" d="M59.16,191.4s.53-2.49,1.9-4.02,2.79-2.31,2.79-2.31"/>
  <path class="cls-7" d="M63.27,191.62s1.1-2.58,3.09-4.59"/>
  <path class="cls-7" d="M67.14,191.96s.13-1.7,1.18-3.08"/>
  <path class="cls-7" d="M49.53,191.51c0-.13,0-.21,0-.21,0,0,.15-.72,1.4-.7s7.09.28,7.09.28"/>
  <path class="cls-7" d="M58.16,194.86l-7.16-1.02s-1.42-.3-1.46-.82c0-.12-.01-.29-.02-.46"/>
  <polyline class="cls-7" points="58.91 193.29 47.03 191.96 47.03 191.51 58.91 192.65"/>
  <path class="cls-9" d="M16.26,177.18s11.65,15.75,17.11,21.12c5.46,5.38,9.79,8.87,16.85,11.68s19.39,8.03,28.06,8.38"/>
  <path class="cls-5" d="M471.86,210.63s11.96-5.14,17.27-7.98,10.24-4.89,12.06-7.36,7.36-13,10.47-24.64c0,0,1.04-3.6-.5-5.01"/>
  <path class="cls-5" d="M511.93,162.6s2.28-.24,2.88-5.61,1.97-23.14,1.82-38"/>
  <path class="cls-4" d="M331.34,212.26s5.19,2.79,8.46,3.86,7.14,2.39,12.28,2.3,10.81-.62,10.95-3.32-7.98-5.41-9.97-5.98-5.23-1.42-7.58-1.42-4.79.75-6.03,1.24-4.08,1.51-7.45,1.73c0,0-1.86.04-1.91.58s1.24,1.02,1.24,1.02Z"/>
  <path class="cls-4" d="M359.66,215.05c.04-1.46-2.26-2.66-4.12-3.28s-6.12-2.57-8.97-2.57c-.87,0-1.75.07-2.63.19"/>
  <path class="cls-9" d="M332.32,211.81c.05.15.15.28.26.36.31.22,5.1,2.39,5.1,2.39,0,0,7.18,3.24,13.21,2.93,6.03-.31,8.73-.98,8.78-2.44"/>
  <path class="cls-4" d="M343.94,209.39c-2,.26-3.96.77-5.68,1.23-2.48.66-4.39.71-5.32.66-.6-.03-.7.26-.62.52"/>
  <path class="cls-4" d="M347.58,209.27s-2.5.51-3.83,1.26,0,1.68,0,1.68l3.41,1.91s.8.22,1.95.22h8.6c.22,0,.92-.2,1.08-.87"/>
  <path id="Axo_Path-8" data-name="Axo Path" class="cls-2" d="M442.9,114.51c0,.31.22.55.48.55h0l23.28.08c.32,0,.48-.33.48-.64"/>
  <path id="Axo_Path-9" data-name="Axo Path" class="cls-2" d="M443.39,121.6c-.27,0-.48.25-.48.55s.22.55.48.55h0l22.45.08c.27,0,.48-.25.48-.55s-.22-.55-.48-.55l-22.45-.08Z"/>
  <path id="Axo_Path-10" data-name="Axo Path" class="cls-2" d="M443.38,129.35c-.27,0-.48.25-.47.56s.22.55.49.55h0l21.96-.25c.27,0,.48-.25.47-.56s-.22-.55-.49-.55l-21.96.25Z"/>
  <path id="Axo_Path-11" data-name="Axo Path" class="cls-2" d="M443.37,137.24c-.27,0-.47.26-.46.57s.23.55.5.54h0l21.33-.65c.27,0,.47-.26.46-.57s-.23-.55-.5-.54l-21.33.65Z"/>
  <path id="Axo_Path-12" data-name="Axo Path" class="cls-2" d="M442.19,144.86c-.27.01-.47.27-.46.57s.24.54.51.53h0l21.53-.92c.27-.01.47-.27.46-.57s-.24-.54-.51-.53l-21.53.92Z"/>
  <path id="Axo_Path-13" data-name="Axo Path" class="cls-2" d="M440.93,152.54c-.27.01-.47.27-.45.58s.24.54.51.53h0l21.32-1.01c.27-.01.47-.27.45-.58s-.24-.54-.51-.53l-21.32,1.01Z"/>
  <path id="Axo_Path-14" data-name="Axo Path" class="cls-2" d="M439.88,160.36c-.27.02-.46.28-.44.59s.26.53.52.51h0l21.08-1.59c.27-.02.46-.28.44-.59s-.26-.53-.52-.51l-21.08,1.59Z"/>
  <path class="cls-2" d="M437.03,170.1s23.25-1.76,24.4-1.92,4.98-1.51,6.44-6.54c1.45-5.03,6.66-21,6.66-47.13"/>
  <line class="cls-2" x1="437.94" y1="167.25" x2="459.6" y2="165.66"/>
  <path class="cls-2" d="M437.6,168.64s12.6-.9,20.14-1.73c0,0,3.18-.42,4.43-3.88s7.2-19.76,7.2-48.52"/>
  <g>
    <path class="cls-2" d="M445.34,121.6c.05-1.93.07-3.89.07-5.88"/>
    <path class="cls-2" d="M445.03,129.33c.12-2.15.21-4.36.28-6.62"/>
    <path class="cls-2" d="M444.48,137.21c.19-2.17.35-4.43.49-6.77"/>
    <path class="cls-2" d="M443.72,144.79c.23-2.05.46-4.21.66-6.47"/>
    <path class="cls-2" d="M442.73,152.45c.29-2.01.58-4.2.86-6.55"/>
    <path class="cls-2" d="M441.47,160.24c.34-1.86.71-4.1,1.1-6.67"/>
    <path class="cls-2" d="M440.22,166.52s.43-1.84,1.05-5.15"/>
    <path class="cls-2" d="M448.43,121.61c.05-1.92.07-3.88.07-5.88"/>
    <path class="cls-2" d="M448.12,129.3c.12-2.13.21-4.32.28-6.58"/>
    <path class="cls-2" d="M447.56,137.12c.19-2.15.36-4.39.5-6.71"/>
    <path class="cls-2" d="M446.78,144.66c.24-2.03.47-4.18.68-6.43"/>
    <path class="cls-2" d="M445.73,152.31c.31-2,.62-4.18.91-6.54"/>
    <path class="cls-2" d="M444.4,160.02c.36-1.84.76-4.05,1.16-6.59"/>
    <path class="cls-2" d="M443.02,166.32s.48-1.83,1.15-5.17"/>
    <path class="cls-2" d="M451.53,121.63c.05-1.91.07-3.88.07-5.88"/>
    <path class="cls-2" d="M451.22,129.26c.12-2.1.21-4.28.28-6.53"/>
    <path class="cls-2" d="M450.65,137.02c.19-2.12.36-4.34.5-6.65"/>
    <path class="cls-2" d="M449.84,144.53c.25-2.01.49-4.15.7-6.4"/>
    <path class="cls-2" d="M448.74,152.17c.32-1.99.65-4.17.96-6.53"/>
    <path class="cls-2" d="M447.33,159.8c.38-1.81.8-3.99,1.23-6.51"/>
    <path class="cls-2" d="M445.82,166.12s.53-1.82,1.26-5.19"/>
    <path class="cls-2" d="M454.62,121.64c.05-1.91.07-3.87.07-5.88"/>
    <path class="cls-2" d="M454.31,129.23c.12-2.08.21-4.25.28-6.48"/>
    <path class="cls-2" d="M453.74,136.93c.19-2.1.37-4.3.51-6.59"/>
    <path class="cls-2" d="M452.91,144.4c.26-1.99.5-4.12.72-6.36"/>
    <path class="cls-2" d="M451.76,152.03c.34-1.98.68-4.15,1-6.52"/>
    <path class="cls-2" d="M450.27,159.58c.4-1.79.85-3.94,1.3-6.43"/>
    <path class="cls-2" d="M448.62,165.92s.58-1.8,1.38-5.21"/>
    <path class="cls-2" d="M457.72,121.65c.05-1.9.07-3.86.07-5.88"/>
    <path class="cls-2" d="M457.41,129.19c.12-2.06.21-4.21.28-6.44"/>
    <path class="cls-2" d="M456.83,136.83c.2-2.07.37-4.25.51-6.53"/>
    <path class="cls-2" d="M455.98,144.26c.27-1.98.51-4.08.74-6.32"/>
    <path class="cls-2" d="M454.78,151.89c.36-1.97.71-4.14,1.04-6.51"/>
    <path class="cls-2" d="M453.22,159.35c.43-1.76.89-3.88,1.36-6.35"/>
    <path class="cls-2" d="M451.42,165.72s.64-1.78,1.51-5.23"/>
    <path class="cls-2" d="M460.81,121.66c.05-1.9.07-3.86.07-5.88"/>
    <path class="cls-2" d="M460.5,129.16c.12-2.04.21-4.18.28-6.39"/>
    <path class="cls-2" d="M459.92,136.74c.2-2.05.37-4.21.51-6.48"/>
    <path class="cls-2" d="M459.06,144.13c.27-1.96.52-4.05.75-6.28"/>
    <path class="cls-2" d="M457.82,151.74c.37-1.96.74-4.12,1.08-6.5"/>
    <path class="cls-2" d="M456.18,159.13c.45-1.74.94-3.83,1.42-6.27"/>
    <path class="cls-2" d="M454.23,165.51s.7-1.75,1.65-5.25"/>
    <path class="cls-2" d="M463.91,121.67c.05-1.89.07-3.85.07-5.88"/>
    <path class="cls-2" d="M463.6,129.12c.12-2.03.21-4.14.28-6.35"/>
    <path class="cls-2" d="M463.02,136.65c.2-2.03.37-4.16.51-6.42"/>
    <path class="cls-2" d="M462.14,144c.28-1.94.53-4.02.76-6.25"/>
    <path class="cls-2" d="M460.86,151.6c.39-1.95.77-4.11,1.12-6.49"/>
    <path class="cls-2" d="M459.15,158.91c.47-1.71.98-3.77,1.48-6.19"/>
    <path class="cls-2" d="M457.03,165.31s.77-1.72,1.8-5.28"/>
    <path class="cls-2" d="M459.83,165.11s7.24-14.33,7.24-49.31"/>
  </g>
  <line class="cls-2" x1="500.06" y1="147.27" x2="502.42" y2="147.27"/>
  <path class="cls-8" d="M215.81,114.51c0,.85-.69,1.54-1.54,1.54s-1.54-.69-1.54-1.54"/>
  <g>
    <path class="cls-6" d="M478.29,114.59s-.73-29.44-4.1-41.24c0,0-1.49-6.85-3.42-9.57s-2.48-2.73-2.13-5.31,2.48-14.29,2.98-15.67.99-2.58,2.33-2.78,3.46.6,4.31,1.19,4.72,2.93,5.91,3.97,2.68,2.43,4.51,5.46,5.75,9.38,7.69,16.52,6.42,19.8,6.42,47.62"/>
    <path class="cls-9" d="M470.07,59.24s7.46.3,12.75,3.59"/>
    <path class="cls-9" d="M474.22,65.46s5.16.66,9.66,0"/>
  </g>
  <g>
    <path class="cls-6" d="M478.29,114.59s-.73,29.44-4.1,41.24c0,0-1.49,6.85-3.42,9.57s-2.48,2.73-2.13,5.31,2.48,14.29,2.98,15.67.99,2.58,2.33,2.78,3.46-.6,4.31-1.19,4.72-2.93,5.91-3.97,2.68-2.43,4.51-5.46,5.75-9.38,7.69-16.52,6.42-19.8,6.42-47.62"/>
    <path class="cls-9" d="M470.07,169.94s7.46-.3,12.75-3.59"/>
    <path class="cls-9" d="M474.22,163.72s5.16-.66,9.66,0"/>
  </g>
</svg>